<svg width="14" height="20" viewBox="0 0 14 20" fill="none" xmlns="http://www.w3.org/2000/svg">
<path d="M7 7C6.03333 7 5.20833 6.65833 4.525 5.975C3.84167 5.29167 3.5 4.46667 3.5 3.5C3.5 2.53333 3.84167 1.70833 4.525 1.025C5.20833 0.341667 6.03333 0 7 0C7.96667 0 8.79167 0.341667 9.475 1.025C10.1583 1.70833 10.5 2.53333 10.5 3.5C10.5 4.46667 10.1583 5.29167 9.475 5.975C8.79167 6.65833 7.96667 7 7 7ZM7 5C7.41667 5 7.77083 4.85417 8.0625 4.5625C8.35417 4.27083 8.5 3.91667 8.5 3.5C8.5 3.08333 8.35417 2.72917 8.0625 2.4375C7.77083 2.14583 7.41667 2 7 2C6.58333 2 6.22917 2.14583 5.9375 2.4375C5.64583 2.72917 5.5 3.08333 5.5 3.5C5.5 3.91667 5.64583 4.27083 5.9375 4.5625C6.22917 4.85417 6.58333 5 7 5ZM7 20L1 14C0.666667 13.6667 0.416667 13.2917 0.25 12.875C0.0833333 12.4583 0 12 0 11.5C0 10.5167 0.3375 9.6875 1.0125 9.0125C1.6875 8.3375 2.51667 8 3.5 8C3.98333 8 4.42917 8.09167 4.8375 8.275C5.24583 8.45833 5.61667 8.71667 5.95 9.05L7 10.1L8.05 9.05C8.38333 8.71667 8.75417 8.45833 9.1625 8.275C9.57083 8.09167 10.0167 8 10.5 8C11.4833 8 12.3125 8.3375 12.9875 9.0125C13.6625 9.6875 14 10.5167 14 11.5C14 12 13.9167 12.4583 13.75 12.875C13.5833 13.2917 13.3333 13.6667 13 14L7 20ZM7 17.15L11.55 12.6C11.7 12.45 11.8125 12.2792 11.8875 12.0875C11.9625 11.8958 12 11.7 12 11.5C12 11.1 11.8583 10.75 11.575 10.45C11.2917 10.15 10.9333 10 10.5 10C10.3 10 10.1208 10.0292 9.9625 10.0875C9.80417 10.1458 9.65 10.25 9.5 10.4L7 12.9L4.5 10.4C4.4 10.3 4.27083 10.2083 4.1125 10.125C3.95417 10.0417 3.75 10 3.5 10C3.06667 10 2.70833 10.15 2.425 10.45C2.14167 10.75 2 11.1 2 11.5C2 11.7 2.04167 11.8875 2.125 12.0625C2.20833 12.2375 2.31667 12.4 2.45 12.55L7 17.15Z" fill="black"/>
</svg>
