<svg width="22" height="10" viewBox="0 0 22 10" fill="none" xmlns="http://www.w3.org/2000/svg">
<path d="M9.5 10C8.95 10 8.47917 9.80417 8.0875 9.4125C7.69583 9.02083 7.5 8.55 7.5 8V2C7.5 1.45 7.69583 0.979167 8.0875 0.5875C8.47917 0.195833 8.95 0 9.5 0H12.5C13.05 0 13.5208 0.195833 13.9125 0.5875C14.3042 0.979167 14.5 1.45 14.5 2V8C14.5 8.55 14.3042 9.02083 13.9125 9.4125C13.5208 9.80417 13.05 10 12.5 10H9.5ZM0 10V8H4V6H2C1.45 6 0.979167 5.80417 0.5875 5.4125C0.195833 5.02083 0 4.55 0 4V2C0 1.45 0.195833 0.979167 0.5875 0.5875C0.979167 0.195833 1.45 0 2 0H6V2H2V4H4C4.55 4 5.02083 4.19583 5.4125 4.5875C5.80417 4.97917 6 5.45 6 6V8C6 8.55 5.80417 9.02083 5.4125 9.4125C5.02083 9.80417 4.55 10 4 10H0ZM16 10V8H20V6H18C17.45 6 16.9792 5.80417 16.5875 5.4125C16.1958 5.02083 16 4.55 16 4V2C16 1.45 16.1958 0.979167 16.5875 0.5875C16.9792 0.195833 17.45 0 18 0H22V2H18V4H20C20.55 4 21.0208 4.19583 21.4125 4.5875C21.8042 4.97917 22 5.45 22 6V8C22 8.55 21.8042 9.02083 21.4125 9.4125C21.0208 9.80417 20.55 10 20 10H16ZM9.5 8H12.5V2H9.5V8Z" fill="black"/>
</svg>
